Stairs_down_RAD
version=1
nRows=26
nColumns=18
inDegrees=no

Units are S.I. units (second, meters, Newtons, ...)
Angles are in degrees.

endheader
time	pelvis_tilt	pelvis_list	pelvis_rotation	pelvis_tx	pelvis_ty	pelvis_tz	hip_flexion_r	hip_adduction_r	hip_rotation_r	knee_angle_r	ankle_angle_r	hip_flexion_l	hip_adduction_l	hip_rotation_l	knee_angle_l	ankle_angle_l	lumbar_extension
1.375	-0.019283095	0.137623692	-0.131626402	0.50537126	1.31744476	0.04397892	0.3755381	-0.048417668	0	-0.941490665	0.351418722	0.389016584	0.104499338	0	-0.166963627	-0.521652134	-0.0872665
1.383	-0.019334696	0.136157057	-0.135964055	0.50813064	1.31269879	0.04405433	0.383519503	-0.046643976	0	-0.965251108	0.363719727	0.384171922	0.105493352	0	-0.157164294	-0.525256303	-0.0872665
1.392	-0.019746728	0.13528835	-0.138774021	0.51080751	1.30780287	0.04377742	0.39198634	-0.046161174	0	-0.989502078	0.380552633	0.38109502	0.108062394	0	-0.150172204	-0.53344439	-0.0872665
1.4	-0.020361548	0.13442451	-0.141475511	0.51363436	1.30285323	0.04359776	0.399582766	-0.045612	0	-1.012241528	0.396030955	0.377315854	0.110762481	0	-0.142903025	-0.538714971	-0.0872665
1.408	-0.021026148	0.133045471	-0.143547844	0.51644042	1.29783936	0.04350704	0.406790902	-0.04425795	0	-1.034604485	0.410415711	0.373562161	0.112955947	0	-0.136121989	-0.545402923	-0.0872665
1.417	-0.021907303	0.131658401	-0.145167916	0.51917012	1.29272882	0.04336801	0.414286306	-0.042887745	0	-1.056981245	0.424590764	0.369598941	0.115282302	0	-0.129783431	-0.552558356	-0.0872665
1.425	-0.022704759	0.130330607	-0.146806227	0.5218399	1.28767886	0.04314147	0.421349207	-0.041774941	0	-1.078697713	0.438598705	0.365264098	0.118079867	0	-0.124446046	-0.559677832	-0.0872665
1.433	-0.02375917	0.129046531	-0.148961755	0.52444298	1.28260795	0.04308564	0.429233115	-0.040315872	0	-1.100942735	0.449515772	0.360537969	0.120487919	0	-0.118574189	-0.563676599	-0.0872665
1.442	-0.025109088	0.12828884	-0.15017865	0.52703991	1.27739945	0.04281378	0.437472136	-0.039758915	0	-1.124064405	0.46335345	0.357480287	0.123968703	0	-0.11482414	-0.572005604	-0.0872665
1.45	-0.026484318	0.126948479	-0.151714805	0.52972087	1.2721817	0.04267289	0.444631801	-0.038407078	0	-1.145392717	0.476532924	0.354416197	0.126599385	0	-0.112458166	-0.578594368	-0.0872665
1.458	-0.027435272	0.125553486	-0.154195867	0.53226353	1.26692917	0.04261939	0.451179729	-0.036794002	0	-1.165967179	0.493241725	0.351238888	0.128742395	0	-0.110912263	-0.586277866	-0.0872665
1.467	-0.028259251	0.124053359	-0.156407176	0.5349771	1.2617325	0.04269921	0.456206736	-0.034436582	0	-1.184561051	0.509471607	0.346538459	0.130448596	0	-0.107927022	-0.591468585	-0.0872665
1.475	-0.029862959	0.122122924	-0.158063222	0.53777112	1.25652032	0.04272242	0.462566571	-0.031899517	0	-1.204583338	0.519978961	0.341633383	0.131786988	0	-0.104125375	-0.593335444	-0.0872665
1.483	-0.031256759	0.121038316	-0.161323207	0.54051756	1.25125453	0.04257933	0.468787492	-0.030283005	0	-1.224233253	0.533678529	0.336935757	0.133789159	0	-0.100967634	-0.595954512	-0.0872665
1.492	-0.032099112	0.120025808	-0.164698296	0.54342956	1.24604068	0.04245533	0.4736385	-0.029021178	0	-1.243953292	0.549135884	0.331515217	0.135871301	0	-0.098463175	-0.597756865	-0.0872665
1.5	-0.032821022	0.118503747	-0.166545546	0.54635167	1.24086079	0.04235264	0.478017367	-0.027045307	0	-1.263130327	0.56502805	0.326424762	0.137604963	0	-0.09733863	-0.597543378	-0.0872665
1.508	-0.034426327	0.116388756	-0.167967127	0.54918918	1.23570181	0.04238956	0.484328762	-0.023991272	0	-1.283201737	0.573182496	0.321023726	0.13808418	0	-0.093941146	-0.595724345	-0.0872665
1.517	-0.035595726	0.11520267	-0.169805607	0.55225836	1.23059451	0.04208891	0.490826022	-0.023091268	0	-1.304481629	0.582236756	0.315859595	0.139638055	0	-0.091992532	-0.592956465	-0.0872665
1.525	-0.037240644	0.114009433	-0.171339351	0.5555751	1.22562878	0.04182186	0.497276823	-0.022435627	0	-1.325086038	0.590080684	0.310738662	0.140875892	0	-0.09024061	-0.58847788	-0.0872665
1.533	-0.039332467	0.112412702	-0.171530291	0.55880714	1.22065788	0.04152241	0.504762811	-0.021449277	0	-1.346279847	0.596199044	0.307199301	0.141639263	0	-0.091571435	-0.578697823	-0.0872665
1.542	-0.039684629	0.110639443	-0.171692157	0.56213199	1.21573812	0.04130631	0.509615692	-0.020726044	0	-1.366768218	0.603339261	0.300646709	0.142359592	0	-0.090807273	-0.568999079	-0.0872665
1.55	-0.039422076	0.108905732	-0.171461975	0.56532305	1.2109758	0.0410733	0.513683551	-0.02019791	0	-1.387096283	0.607532142	0.293698784	0.143329579	0	-0.091193259	-0.554715038	-0.0872665
1.558	-0.040224314	0.107430274	-0.170980904	0.5685228	1.20634555	0.04071754	0.518605498	-0.019953416	0	-1.406464764	0.611404474	0.288155857	0.144156143	0	-0.092135099	-0.537920501	-0.0872665
1.567	-0.041599476	0.105747804	-0.170195271	0.57199814	1.20180519	0.04044128	0.523228869	-0.019438699	0	-1.424981497	0.6145157	0.282565122	0.144469866	0	-0.093127726	-0.517292392	-0.0872665
1.575	-0.043184332	0.103908501	-0.169634876	0.57562755	1.19712022	0.04022689	0.528531622	-0.018765608	0	-1.444310023	0.615399048	0.276931183	0.144382746	0	-0.095433959	-0.482888861	-0.0872665
1.583	-0.044252188	0.102743678	-0.167743905	0.57933448	1.19274644	0.03968765	0.533019173	-0.019545531	0	-1.463086636	0.617868578	0.270644869	0.146178484	0	-0.098344113	-0.439400413	-0.0872665
